<svg xmlns:xlink="http://www.w3.org/1999/xlink" xmlns="http://www.w3.org/2000/svg" stroke-width="0.501" stroke-linejoin="bevel" fill-rule="evenodd" version="1.1" overflow="visible" viewBox="0 0 75 93.75" x="0px" y="0px"><g fill="none" stroke="black" font-family="Times New Roman" font-size="16" transform="scale(1 -1)"><g transform="translate(0 -75)"><g><path d="M 34.608,1.567 L 33.932,2.266 C 33.86,2.325 33.788,2.384 33.715,2.444 L 33.739,2.44 L 33.323,2.522 C 31.779,2.759 28.682,2.916 25.692,4.199 C 14.405,9.392 11.616,18.826 14.271,27.104 C 15.891,32.155 17.976,35.334 19.364,39.155 C 20.231,41.539 20.83,43.729 21.603,46.458 C 21.741,46.963 21.869,47.456 21.986,47.942 C 21.789,47.917 21.577,47.898 21.359,47.882 C 20.997,47.856 20.606,47.839 20.218,47.83 C 19.443,47.808 18.657,47.808 18.075,47.795 C 17.804,47.788 17.581,48.002 17.575,48.272 C 17.568,48.542 17.781,48.766 18.051,48.772 C 18.645,48.786 19.425,48.786 20.192,48.807 C 20.572,48.818 20.946,48.833 21.289,48.858 C 21.634,48.883 21.938,48.916 22.183,48.96 C 22.194,48.962 22.207,48.964 22.221,48.965 C 22.289,49.28 22.354,49.592 22.417,49.905 C 21.885,49.967 21.216,50.057 20.552,50.162 C 20.108,50.232 19.663,50.311 19.26,50.394 C 18.861,50.475 18.492,50.563 18.206,50.656 C 17.949,50.738 17.808,51.014 17.891,51.271 C 17.975,51.528 18.249,51.669 18.507,51.586 C 18.742,51.511 19.07,51.432 19.456,51.351 C 19.84,51.273 20.271,51.197 20.707,51.129 C 21.386,51.021 22.071,50.93 22.6,50.869 C 22.763,51.768 22.91,52.681 23.058,53.642 C 23.059,53.647 23.06,53.653 23.061,53.658 C 22.807,53.979 22.574,54.318 22.364,54.671 C 22.184,54.971 21.773,55.829 21.839,56.378 C 21.848,56.457 21.869,56.552 21.916,56.645 C 21.946,56.706 21.987,56.758 22.038,56.801 L 22.067,56.825 C 22.333,57.035 22.782,57.16 23.213,57.249 C 23.343,57.276 23.484,57.301 23.631,57.326 C 23.632,57.328 23.632,57.331 23.633,57.334 C 24.072,60.896 24.28,63.912 24.425,65.076 C 24.628,66.67 24.851,68.79 25.287,70.504 C 25.636,71.874 26.213,73.386 27.333,73.742 L 27.704,73.799 L 27.877,73.836 C 28.963,73.961 30.268,72.177 31.047,71.016 C 31.742,69.978 32.402,68.807 32.727,68.044 L 32.76,67.958 L 32.868,67.989 C 35.713,68.683 40.893,68.647 43.916,67.902 L 44.16,67.834 L 44.248,67.986 C 44.612,68.626 45.318,69.878 46.145,71.07 C 47.095,72.435 48.621,74.382 50.023,73.89 C 51.069,73.525 51.625,71.751 52.022,70.086 C 52.466,68.215 52.842,65.814 53.276,63.548 C 53.64,61.914 54.208,59.565 54.401,57.432 C 54.406,57.368 54.401,57.308 54.384,57.252 C 54.389,57.251 54.393,57.25 54.399,57.249 C 54.835,57.159 55.281,57.034 55.544,56.826 L 55.573,56.801 C 55.624,56.759 55.665,56.706 55.696,56.645 C 55.742,56.552 55.763,56.457 55.773,56.379 C 55.812,56.046 55.674,55.595 55.521,55.229 C 56.407,54.539 57.439,53.591 57.862,53.105 C 61.303,49.158 61.915,45.178 60.905,40.835 C 60.515,39.159 59.611,37.626 58.584,36.408 L 57.777,35.559 L 58.489,33.917 C 59.227,32.014 59.666,30.242 60.121,28.339 C 60.414,27.122 60.808,25.105 60.833,21.79 L 60.82,20.428 L 61.743,18.834 C 63.766,14.735 63.575,10.405 62.383,7.049 C 60.025,0.409 51.266,-2.226 45.651,2.802 L 44.799,3.681 L 44.573,3.62 C 44.096,3.485 43.392,3.279 42.904,3.105 L 42.456,2.906 L 42.233,2.14 C 41.755,1.146 40.737,0.222 39.458,0.051 C 37.491,-0.211 35.781,0.58 34.608,1.567 Z M 41.547,3.222 C 41.552,3.274 41.565,3.325 41.585,3.374 C 41.555,3.443 41.54,3.519 41.546,3.601 C 41.557,3.759 41.48,4.129 41.286,4.684 C 41.102,5.21 40.84,5.833 40.545,6.467 C 39.956,7.739 39.266,9.004 38.89,9.557 C 37.273,11.934 34.663,15.762 34.794,19.341 C 34.804,19.61 35.031,19.821 35.301,19.811 C 35.571,19.801 35.782,19.574 35.772,19.303 C 35.656,16.137 37.975,12.642 39.699,10.106 C 40.119,9.489 40.835,8.17 41.434,6.877 C 41.733,6.228 42.011,5.574 42.21,5.007 C 42.332,4.656 42.439,4.302 42.492,3.988 C 43.023,4.189 43.716,4.395 44.21,4.534 C 42.547,7.138 41.884,10.567 42.602,13.452 C 43.398,16.651 45.89,19.148 50.431,19.1 C 55.437,19.047 58.517,13.489 57.096,9.73 C 55.906,6.583 53.54,5.983 51.724,6.693 C 50.518,7.165 49.535,8.253 49.488,9.425 L 49.489,9.48 L 49.363,9.545 C 48.751,10.026 48.389,10.844 48.347,11.58 C 48.303,12.316 48.59,13.185 49.529,13.412 C 50.389,13.62 51.169,13.349 51.437,12.592 C 51.675,11.923 51.411,11.1 50.824,10.398 C 50.052,9.474 50.719,8.138 52.08,7.605 C 53.354,7.106 55.17,7.402 56.181,10.077 C 57.373,13.23 54.705,18.076 50.421,18.122 C 46.348,18.164 44.241,15.99 43.552,13.216 C 42.847,10.383 43.621,6.897 45.458,4.45 C 45.494,4.403 45.519,4.351 45.535,4.298 C 50.546,-1.246 59.212,1.047 61.461,7.377 C 62.74,10.976 62.784,15.75 59.924,20.029 C 59.868,20.112 59.84,20.212 59.843,20.312 C 59.943,24.445 59.485,26.794 59.17,28.112 C 58.564,30.642 58.007,32.858 56.76,35.449 C 56.666,35.643 56.709,35.874 56.867,36.02 C 58.189,37.247 59.49,39.067 59.952,41.056 C 60.898,45.127 60.336,48.778 57.125,52.462 C 56.771,52.867 55.865,53.708 55.05,54.354 C 54.211,53.069 53.053,51.988 51.695,51.261 C 52.418,50.083 52.881,48.983 53.019,47.846 C 53.175,46.552 52.904,45.263 52.211,43.816 C 52.094,43.572 51.802,43.469 51.558,43.586 C 51.314,43.702 51.212,43.995 51.328,44.238 C 51.965,45.565 52.175,46.665 52.047,47.729 C 51.928,48.706 51.516,49.697 50.799,50.848 C 48.79,50.056 46.44,50.019 44.076,51.145 C 43.294,51.517 41.879,52.357 40.85,53.354 C 40.338,53.849 39.88,54.422 39.672,55.033 C 39.616,55.195 39.579,55.359 39.562,55.524 L 38.047,55.524 C 38.03,55.359 37.993,55.195 37.939,55.033 C 37.731,54.421 37.273,53.848 36.762,53.354 C 35.731,52.356 34.317,51.516 33.536,51.144 C 29.897,49.412 26.285,50.435 23.905,52.726 C 23.554,50.506 23.175,48.475 22.546,46.194 C 21.776,43.476 21.165,41.247 20.283,38.821 C 18.698,34.456 16.909,32.123 15.202,26.803 C 12.699,18.997 15.264,10.075 26.088,5.093 C 28.528,4.046 30.702,3.842 32.371,3.647 C 28.646,7.184 25.075,12.348 23.85,17.247 C 23.784,17.509 23.945,17.775 24.207,17.84 C 24.468,17.906 24.734,17.746 24.8,17.483 C 26.088,12.328 30.155,6.764 34.158,3.35 C 34.253,3.32 34.338,3.262 34.399,3.184 C 34.424,3.15 34.45,3.118 34.477,3.085 C 34.52,3.049 34.564,3.012 34.609,2.976 C 34.679,2.918 34.731,2.843 34.76,2.761 C 35.751,1.722 37.418,0.766 39.328,1.021 C 40.555,1.185 41.468,2.359 41.547,3.222 Z M 49.751,10.537 L 49.844,10.712 C 49.91,10.817 49.987,10.922 50.073,11.025 C 50.547,11.592 50.589,12.054 50.515,12.264 C 50.47,12.389 50.317,12.595 49.757,12.46 C 49.48,12.394 49.294,12.141 49.323,11.637 C 49.345,11.261 49.495,10.863 49.721,10.568 L 49.751,10.537 Z M 37.919,25.98 C 36.918,26.751 35.864,28.032 35.344,28.966 C 35.317,29.017 35.297,29.072 35.287,29.138 C 35.237,29.485 35.362,30.151 35.5,30.763 C 35.654,31.46 35.874,32.306 36.106,33.147 C 36.537,34.716 37.02,36.312 37.181,36.871 L 37.195,36.918 L 37.216,37.29 L 37.185,37.299 C 36.778,37.449 36.332,37.773 35.981,38.129 C 35.488,38.625 35.009,39.345 34.99,40.15 C 34.987,40.278 35.034,40.403 35.122,40.496 C 35.789,41.21 37.249,41.429 38.483,41.424 C 39.744,41.42 41.158,41.184 41.845,40.647 C 41.955,40.562 42.023,40.434 42.033,40.298 C 42.122,39.131 41.474,38.19 40.665,37.648 L 40.295,37.437 L 40.327,37.362 C 40.405,37.179 40.526,36.917 40.706,36.542 C 41.021,35.892 41.437,35.064 41.832,34.216 C 42.229,33.366 42.616,32.47 42.882,31.664 C 43.138,30.892 43.318,30.096 43.199,29.499 C 43.035,28.679 42.512,27.583 41.896,26.718 C 41.341,25.938 40.481,25.016 39.581,25.144 C 39.063,25.218 38.52,25.516 37.919,25.98 Z M 41.099,27.285 C 41.661,28.076 42.11,29.044 42.239,29.692 C 42.302,30.008 42.211,30.579 41.954,31.358 C 41.705,32.108 41.336,32.963 40.945,33.802 C 40.552,34.644 40.149,35.447 39.826,36.116 C 39.582,36.62 39.254,37.295 39.202,37.645 C 39.166,37.887 39.314,38.115 39.545,38.185 C 40.259,38.399 40.939,39.047 41.047,39.863 L 41.051,39.994 L 40.818,40.096 C 40.277,40.3 39.418,40.442 38.48,40.446 C 37.371,40.45 36.44,40.254 35.995,39.959 L 36.025,39.832 C 36.128,39.486 36.365,39.129 36.674,38.818 C 36.873,38.618 37.086,38.454 37.273,38.341 C 37.425,38.25 37.531,38.21 37.587,38.196 L 37.623,38.189 L 37.682,38.203 C 37.968,38.232 38.234,37.997 38.218,37.689 L 38.168,36.809 C 38.166,36.774 38.161,36.737 38.152,36.702 C 38.014,36.219 37.51,34.567 37.049,32.888 C 36.819,32.053 36.604,31.223 36.454,30.55 C 36.3,29.86 36.26,29.523 36.254,29.375 L 36.253,29.353 L 36.394,29.117 C 36.899,28.33 37.739,27.354 38.517,26.754 C 39.077,26.323 39.455,26.15 39.72,26.113 C 39.944,26.08 40.472,26.405 41.099,27.285 Z M 36.848,51.464 C 36.848,52.085 37.791,52.589 38.952,52.589 C 40.114,52.589 41.056,52.085 41.056,51.464 C 41.056,50.842 40.114,50.338 38.952,50.338 C 37.791,50.338 36.848,50.842 36.848,51.464 Z M 54.406,55.172 C 54.481,55.298 54.595,55.529 54.683,55.771 C 54.731,55.905 54.763,56.016 54.781,56.099 L 54.786,56.13 L 54.722,56.155 C 54.604,56.195 54.434,56.243 54.2,56.291 C 53.767,56.381 53.201,56.46 52.537,56.526 C 51.213,56.659 49.538,56.739 47.856,56.763 C 46.176,56.786 44.499,56.753 43.171,56.662 C 42.505,56.617 41.936,56.557 41.5,56.486 C 41.141,56.427 40.926,56.366 40.822,56.325 L 40.766,56.3 L 40.621,56.09 C 40.504,55.859 40.506,55.618 40.598,55.349 C 40.732,54.954 41.061,54.51 41.53,54.056 C 42.462,53.156 43.779,52.37 44.495,52.03 C 48.517,50.115 52.503,51.979 54.406,55.172 Z M 33.115,52.029 C 33.832,52.369 35.149,53.156 36.081,54.056 C 36.55,54.51 36.878,54.954 37.013,55.349 C 37.105,55.617 37.107,55.858 36.988,56.089 L 36.844,56.299 L 36.792,56.323 C 36.689,56.364 36.478,56.425 36.112,56.485 C 35.675,56.557 35.106,56.616 34.44,56.661 C 33.111,56.751 31.435,56.784 29.753,56.762 C 28.073,56.738 26.398,56.659 25.075,56.526 C 24.41,56.459 23.843,56.38 23.412,56.291 C 23.174,56.242 23.003,56.193 22.886,56.153 L 22.824,56.13 L 22.83,56.097 C 22.847,56.013 22.88,55.903 22.928,55.77 C 23.016,55.528 23.129,55.297 23.204,55.172 C 23.448,54.764 23.725,54.377 24.034,54.015 C 26.131,51.564 29.606,50.358 33.115,52.029 Z M 40.046,56.968 C 40.097,57.025 40.152,57.068 40.202,57.103 C 40.463,57.278 40.895,57.377 41.339,57.451 C 41.819,57.53 42.423,57.592 43.104,57.638 C 44.467,57.731 46.171,57.764 47.87,57.741 C 49.569,57.717 51.273,57.636 52.634,57.5 C 52.91,57.473 53.173,57.442 53.421,57.41 C 53.228,59.446 52.688,61.687 52.318,63.349 C 51.871,65.683 51.508,68.016 51.069,69.858 C 50.592,71.868 50.099,72.828 49.7,72.967 C 49.207,73.14 48.187,72.292 46.949,70.512 C 45.904,69.007 44.987,67.266 44.801,67.005 L 44.781,66.978 L 44.76,66.954 C 44.633,66.8 44.425,66.739 44.235,66.798 C 41.34,67.709 35.232,67.745 32.595,66.897 C 32.31,66.806 32.009,66.99 31.963,67.286 C 31.914,67.591 31.203,69.025 30.233,70.471 C 29.769,71.163 29.279,71.806 28.833,72.261 C 28.459,72.645 28.208,72.796 28.078,72.844 L 27.989,72.863 L 27.847,72.842 C 27.252,72.842 26.686,72.03 26.236,70.262 C 25.819,68.623 25.603,66.585 25.398,64.953 C 25.248,63.769 25.064,61.003 24.634,57.464 C 24.746,57.476 24.859,57.489 24.976,57.5 C 26.338,57.636 28.041,57.717 29.741,57.741 C 31.44,57.763 33.144,57.731 34.507,57.637 C 35.188,57.591 35.792,57.529 36.271,57.45 C 36.71,57.377 37.145,57.279 37.408,57.102 C 37.458,57.068 37.513,57.024 37.565,56.967 C 37.697,56.816 37.8,56.661 37.877,56.503 L 39.734,56.503 C 39.81,56.661 39.914,56.816 40.046,56.968 Z" fill-rule="evenodd" stroke="none" fill="#000000" stroke-width="0.5" marker-start="none" marker-end="none" stroke-miterlimit="79.8403193612775"/></g></g></g><text x="0" y="90" fill="#000000" font-size="5px" font-weight="bold" font-family="'Helvetica Neue', Helvetica, Arial-Unicode, Arial, Sans-serif">Created by Denis Sazhin</text><text x="0" y="95" fill="#000000" font-size="5px" font-weight="bold" font-family="'Helvetica Neue', Helvetica, Arial-Unicode, Arial, Sans-serif">from the Noun Project</text></svg>