<svg xmlns="http://www.w3.org/2000/svg" viewBox="0 0 97.3837 116.6869375" x="0px" y="0px"><title>sleepy_cat_19</title><g data-name="Layer 2"><g data-name="Layer 1"><path d="M76.783,43.0575A6.56316,6.56316,0,0,0,81.61987,45.44l.18189.00263a6.57153,6.57153,0,0,0,4.78735-2.09717.99992.99992,0,0,0-1.47168-1.35407,4.58413,4.58413,0,0,1-3.31567,1.45124l-.12354-.00177a4.57587,4.57587,0,0,1-3.34668-1.64881A.99984.99984,0,1,0,76.7832,43.0575Z"/><path d="M.48047,50.98761A58.02629,58.02629,0,0,0,4.13794,65.92188,42.65629,42.65629,0,0,0,19.6228,85.6571a44.327,44.327,0,0,0,24.46,7.69245,33.40889,33.40889,0,0,0,13.2522-2.611,38.91112,38.91112,0,0,0,9.30664-5.77173,20.12477,20.12477,0,0,0,3.57373-3.83624,7.66439,7.66439,0,0,0,1.52124-4.22968,4.97664,4.97664,0,0,0-.09985-.99847l-.00049-.00263a5.799,5.799,0,0,0-1.44287-2.721,5.30554,5.30554,0,0,0-2.71-1.61053,4.04212,4.04212,0,0,0-2.57153.27484,8.23207,8.23207,0,0,0-2.44336,1.84943c-2.259,2.33246-4.56128,5.8114-8.575,8.15094a20.82263,20.82263,0,0,1-10.60181,2.64532,35.25714,35.25714,0,0,1-12.14185-2.3634A28.10243,28.10243,0,0,1,18.554,72.97559,37.90114,37.90114,0,0,0,25.957,76.852,34.785,34.785,0,0,0,38.44141,79.2066l.20337-.00061a18.375,18.375,0,0,0,6.95117-1.1361,7.83427,7.83427,0,0,0,1.71338-.96039,5.50214,5.50214,0,0,0,.84716-.7854,6.40424,6.40424,0,0,0,1.64429-3.92444v-.003l.00318-.20874a6.95021,6.95021,0,0,0-.97852-3.50592,4.922,4.922,0,0,0-3.26123-2.38111,4.8294,4.8294,0,0,0-.92969-.08978,5.68273,5.68273,0,0,0-4.624,2.58106,7.17078,7.17078,0,0,1-4.16113-1.69812,4.87983,4.87983,0,0,1-1.79908-3.50684v-.0025l-.00073-.0387a4.66419,4.66419,0,0,1,.74951-2.42419,5.48031,5.48031,0,0,1,1.918-1.85993,3.98492,3.98492,0,0,1,.86987-.35657,7.65625,7.65625,0,0,1,2.07886-.277l.10108-.00061A14.5038,14.5038,0,0,1,46.01,60.158a8.82721,8.82721,0,0,1,4.4043,4.32336,19.47519,19.47519,0,0,1,.56909,1.91047,6.97027,6.97027,0,0,0,1.21753,2.39025,8.99331,8.99331,0,0,0,1.40918,1.51172,5.703,5.703,0,0,0,2.78906,1.27924,5.52208,5.52208,0,0,0,.83325.06287,6.33136,6.33136,0,0,0,4.78906-2.32209,6.50951,6.50951,0,0,0,1.41285-4.17944,8.002,8.002,0,0,0-.19385-1.75745l-.00073-.00329a8.50661,8.50661,0,0,0-2.78833-4.39258,33.80367,33.80367,0,0,0-4.50879-3.21259c-1.45874-.92633-2.66187-1.5357-3.62744-2.17108a7.79415,7.79415,0,0,1-2.42383-2.36035,3.70054,3.70054,0,0,1-.77075-1.99609,1.81959,1.81959,0,0,1,.029-.32514l.001-.00549a2.61128,2.61128,0,0,1,.85522-1.4422,4.07771,4.07771,0,0,1,.46387-.36639,22.64276,22.64276,0,0,0,3.707,4.5769,25.68907,25.68907,0,0,0,17.50244,6.738,25.03656,25.03656,0,0,0,6.58813-.87293,4.83721,4.83721,0,0,1-1.6853,2.3208,4.92646,4.92646,0,0,1-2.18286.76892,7.81119,7.81119,0,0,0-1.38892.36585,4.83408,4.83408,0,0,0-1.51977.93847l.00122-.00116a6.08609,6.08609,0,0,0-1.0061,1.18311,4.893,4.893,0,0,0-.83716,2.66339c0,.11859.00512.23676.01465.35437a4.70068,4.70068,0,0,0,1.05224,2.55829,5.58836,5.58836,0,0,0,1.88306,1.5097,5.08352,5.08352,0,0,0,2.2395.49817,7.89629,7.89629,0,0,0,2.95361-.6463,16.14092,16.14092,0,0,0,1.9939-1.01092,12.64743,12.64743,0,0,0,3.98242-3.7132,20.64518,20.64518,0,0,0,2.95923-6.68768,29.38618,29.38618,0,0,0,.80347-4.62256.98619.98619,0,0,0-.66992-1.01788,20.48115,20.48115,0,0,0,1.86816-1.82276,38.114,38.114,0,0,0,4.95386,2.84485,1,1,0,0,0,.86084-1.8053,36.14356,36.14356,0,0,1-4.55762-2.60376c.39624-.53985.76147-1.09124,1.10059-1.65179q2.49645.797,4.99267,1.59369a1,1,0,0,0,.60889-1.90515q-2.30823-.7371-4.61621-1.47351c.27807-.56183.541-1.1269.77514-1.69581a51.07715,51.07715,0,0,0,2.80225-10.97711l.00049-.00366a26.46992,26.46992,0,0,0,.28808-4.11981,29.11372,29.11372,0,0,0-1.84082-10.40271,10.51817,10.51817,0,0,0-1.19775-2.3667,3.971,3.971,0,0,0-.824-.85461,2.77789,2.77789,0,0,0-1.69043-.56843,3.72829,3.72829,0,0,0-1.86817.55823,9.18087,9.18087,0,0,0-2.49512,2.33948,21.05951,21.05951,0,0,0-1.905,3.01013c-1.49878-.45935-3.03418-.86993-4.60328-1.22192a33.47319,33.47319,0,0,0-7.59765-10.282A35.76861,35.76861,0,0,0,56.60864,1.58142,44.12466,44.12466,0,0,0,44.72119,0c-1.335,0-2.74878.05756-4.22632.19366A46.12477,46.12477,0,0,0,20.06055,7.12329,44.0761,44.0761,0,0,0,4.29126,24.80182,43.31383,43.31383,0,0,0,0,43.86469,57.23863,57.23863,0,0,0,.48047,50.98761Zm83.69385,9.16608a16.85557,16.85557,0,0,1-2.0398,4.02539,10.652,10.652,0,0,1-3.3501,3.13574,14.20932,14.20932,0,0,1-1.75048.89148,5.94541,5.94541,0,0,1-2.196.49737,3.08247,3.08247,0,0,1-1.36645-.2976,3.60679,3.60679,0,0,1-1.19678-.96271,2.70209,2.70209,0,0,1-.61817-1.46912l-.0083-.19116a2.90623,2.90623,0,0,1,.51319-1.57147,4.11752,4.11752,0,0,1,.6665-.78693l.00122-.00116a2.81784,2.81784,0,0,1,.90088-.55829,11.25171,11.25171,0,0,1,1.68457-.39257,6.00239,6.00239,0,0,0,2.32349-.97608,7.16219,7.16219,0,0,0,2.62671-3.89453.98994.98994,0,0,0-.05835-.72259,22.04241,22.04241,0,0,0,4.29321-2.15119c.321-.20874.61426-.43384.91577-.654A26.25146,26.25146,0,0,1,84.17432,60.15369ZM6.09082,25.6748A42.08167,42.08167,0,0,1,21.144,8.80438,44.13675,44.13675,0,0,1,40.67822,2.18524C42.09131,2.05505,43.4436,2,44.72119,2A42.12731,42.12731,0,0,1,56.06641,3.50647a33.78138,33.78138,0,0,1,14.49975,7.566,31.356,31.356,0,0,1,6.44507,8.29633,99.50412,99.50412,0,0,0-14.85791-1.5625,30.75167,30.75167,0,0,0-.79687-3.79163,7.067,7.067,0,0,0-.80933-1.834A2.862,2.862,0,0,0,59.019,10.961a2.46763,2.46763,0,0,0-.72094-.10632,3.703,3.703,0,0,0-1.90747.61444,11.61185,11.61185,0,0,0-2.41675,2.09332,28.18305,28.18305,0,0,0-3.56763,4.89069,1.00008,1.00008,0,1,0,1.73,1.0039H52.136a26.19424,26.19424,0,0,1,3.30786-4.53839,9.72454,9.72454,0,0,1,1.98242-1.73846,1.77118,1.77118,0,0,1,.87183-.3255l.13818.01953c.10059.03045.2478.11969.44409.4118a7.32657,7.32657,0,0,1,.80957,2.24323c.23267,1.00091.4231,2.18615.62256,3.40594a.99937.99937,0,0,0,.96021.83789,95.84374,95.84374,0,0,1,17.07836,1.8996.97449.97449,0,0,0,.646.13775c1.82593.407,3.61035.87916,5.31836,1.43287a1.00226,1.00226,0,0,0,1.20483-.50861,17.697,17.697,0,0,1,2.7649-4.22223,5.75622,5.75622,0,0,1,1.23852-1.03375,1.769,1.769,0,0,1,.86109-.28626l.17236.01795a.81759.81759,0,0,1,.32227.15362,2.619,2.619,0,0,1,.63159.77979,10.98884,10.98884,0,0,1,.72143,1.56195A27.14765,27.14765,0,0,1,93.938,29.385a24.64986,24.64986,0,0,1-.26026,3.787l.00049-.00367A49.27705,49.27705,0,0,1,90.99805,43.7229a19.65883,19.65883,0,0,1-7.48926,9.3291A21.65368,21.65368,0,0,1,71.6792,56.41669,23.70264,23.70264,0,0,1,55.551,50.22559c-5.78516-5.45838-6.63038-12.72351-6.80372-14.93525a.9998.9998,0,0,0-1.99316.16047c.02515.30529.06226.7033.11963,1.17327a27.34362,27.34362,0,0,0-4.394-.36206q-.42665-.00009-.85327.01337a1,1,0,1,0,.063,1.999q.39514-.01245.79029-.01245a25.333,25.333,0,0,1,4.73462.45148c.09887.49207.218,1.01367.36279,1.56555q-2.25806.20216-4.51709.40369a1,1,0,0,0,.178,1.99206q2.46606-.22,4.92993-.44061a25.29344,25.29344,0,0,0,1.323,3.11273,6.32574,6.32574,0,0,0-.84229.65229,4.60031,4.60031,0,0,0-1.46728,2.56256,3.78807,3.78807,0,0,0-.06055.67926,5.64388,5.64388,0,0,0,1.09863,3.09344A9.82245,9.82245,0,0,0,51.21875,55.27c1.10571.72278,2.283,1.315,3.65039,2.18616a32.16722,32.16722,0,0,1,4.241,3.0083,6.52173,6.52173,0,0,1,2.18066,3.35876,6.00484,6.00484,0,0,1,.1438,1.31122,4.51863,4.51863,0,0,1-.959,2.9104A4.35178,4.35178,0,0,1,57.23242,69.636,3.53649,3.53649,0,0,1,56.7,69.59583a3.70046,3.70046,0,0,1-1.81665-.84418,7.061,7.061,0,0,1-1.09839-1.19055,4.929,4.929,0,0,1-.88452-1.73963A19.99554,19.99554,0,0,0,52.2688,63.732a10.79215,10.79215,0,0,0-5.3606-5.361,16.46772,16.46772,0,0,0-7.14135-1.74316l-.12085.00061a9.65087,9.65087,0,0,0-2.62085.35742,6.00775,6.00775,0,0,0-1.29.53357,7.47041,7.47041,0,0,0-2.63281,2.54364,6.64546,6.64546,0,0,0-1.05249,3.483l.00073.06647V63.61a6.85919,6.85919,0,0,0,2.4812,4.98852,9.24453,9.24453,0,0,0,6.00073,2.22412,1.00007,1.00007,0,0,0,.8938-.52832,3.77357,3.77357,0,0,1,3.20825-2.08319,2.82838,2.82838,0,0,1,.54468.05237,2.91726,2.91726,0,0,1,1.93506,1.45367,4.98355,4.98355,0,0,1,.68994,2.47077l-.0022.14093v-.003a4.43313,4.43313,0,0,1-1.15063,2.681,3.45631,3.45631,0,0,1-.54639.506c-.8374.62958-2.83789,1.66156-7.47192,1.69323l-.19165.00055A32.78924,32.78924,0,0,1,26.679,74.98682,36.09676,36.09676,0,0,1,16.04932,68.5589a.99738.99738,0,0,0-.3479-.19592A27.97916,27.97916,0,0,1,13.053,59.06311a.99994.99994,0,0,0-1.98926.20575,29.64538,29.64538,0,0,0,5.61084,14.54895A30.00391,30.00391,0,0,0,30.43311,83.99255a37.20256,37.20256,0,0,0,12.85864,2.49628,22.81382,22.81382,0,0,0,11.61084-2.9184,29.31173,29.31173,0,0,0,7.437-6.7423,21.80434,21.80434,0,0,1,2.3938-2.51551,4.41431,4.41431,0,0,1,.99145-.64215,2.04463,2.04463,0,0,1,1.33228-.148,3.3268,3.3268,0,0,1,1.67114,1.0177A3.822,3.822,0,0,1,69.677,76.303a3.01791,3.01791,0,0,1,.05982.598,5.738,5.738,0,0,1-1.17432,3.10345,22.11007,22.11007,0,0,1-5.3147,5.07386A37.4563,37.4563,0,0,1,56.54321,88.902a31.41449,31.41449,0,0,1-12.46045,2.44757,42.34646,42.34646,0,0,1-23.33129-7.34369A40.65212,40.65212,0,0,1,5.99487,65.179,56.04589,56.04589,0,0,1,2.46606,50.74719a55.31689,55.31689,0,0,1-.4663-6.8825A41.31622,41.31622,0,0,1,6.09082,25.6748Z"/><polygon points="47.181 48.564 47.181 48.562 47.182 48.559 47.181 48.564"/><path d="M54.16162,40.67273a6.13544,6.13544,0,0,0,5.05225,2.72089l.032-.00007.00317-.00006a6.1365,6.1365,0,0,0,5.054-2.78137.99989.99989,0,0,0-1.68262-1.08069,4.15317,4.15317,0,0,1-3.38379,1.86212h.00318l-.02588.00007a4.15085,4.15085,0,0,1-3.38208-1.82129,1,1,0,1,0-1.66992,1.10046Z"/><path d="M68.65137,47.71393h-.00025q.7848-.74917,1.56763-1.49726c.48926.60328.97168,1.21259,1.49316,1.78791a1,1,0,0,0,1.48194-1.34314q-1.10119-1.21473-2.10034-2.51465a.99985.99985,0,0,0-1.4834-.11438Q68.439,45.15,67.27,46.26752a1,1,0,1,0,1.38135,1.44641Z"/><polygon points="43.238 42.675 43.238 42.675 43.238 42.675 43.238 42.675"/><polygon points="41.689 38.274 41.689 38.274 41.689 38.274 41.689 38.274"/></g></g><text x="0" y="108.34955" fill="#000000" font-size="5px" font-weight="bold" font-family="'Helvetica Neue', Helvetica, Arial-Unicode, Arial, Sans-serif">Created by Denis Sazhin</text><text x="0" y="113.34955" fill="#000000" font-size="5px" font-weight="bold" font-family="'Helvetica Neue', Helvetica, Arial-Unicode, Arial, Sans-serif">from the Noun Project</text></svg>