<svg xmlns="http://www.w3.org/2000/svg" viewBox="0 0 95.58925 111.68457500000001" x="0px" y="0px"><title>sleepy_cat_black_19</title><g data-name="Layer 2"><g data-name="Layer 1"><path d="M75.73438,59.49512a6.01856,6.01856,0,0,1-2.32032.97656,11.38118,11.38118,0,0,0-1.68554.39355,2.84968,2.84968,0,0,0-.90039.55469c-.05762.05469-.13868.13184-.25391.25977a4.361,4.361,0,0,0-.41406.53418,2.89875,2.89875,0,0,0-.51465,1.57226l.00781.18946a2.71169,2.71169,0,0,0,.62012,1.46777,3.61759,3.61759,0,0,0,1.19824.96484,3.09827,3.09827,0,0,0,1.36523.2959A5.94651,5.94651,0,0,0,75.0332,66.207a14.08567,14.08567,0,0,0,1.751-.89258l.00293-.00195a12.89332,12.89332,0,0,0,5.293-6.90039,26.51387,26.51387,0,0,0,1.43847-6.33984c-.30175.2207-.5957.44628-.917.65527a22.12537,22.12537,0,0,1-4.29883,2.1543.99078.99078,0,0,1,.05957.71972A7.11634,7.11634,0,0,1,75.73438,59.49512Z"/><path d="M.46973,48.74707V48.75A55.811,55.811,0,0,0,3.99609,63.17871,40.67268,40.67268,0,0,0,18.751,82.00293a42.33028,42.33028,0,0,0,23.33007,7.34473,31.41744,31.41744,0,0,0,12.46-2.44727,37.48079,37.48079,0,0,0,6.708-3.82324,22.11439,22.11439,0,0,0,5.31446-5.07324,5.72941,5.72941,0,0,0,1.17382-3.10352,2.90511,2.90511,0,0,0-.06054-.59961A3.79321,3.79321,0,0,0,66.72852,72.54a3.33026,3.33026,0,0,0-1.67481-1.01465,2.03547,2.03547,0,0,0-1.33008.14844,4.41621,4.41621,0,0,0-.99023.6416,21.96635,21.96635,0,0,0-2.39258,2.51465,29.30979,29.30979,0,0,1-7.43945,6.74219A22.81391,22.81391,0,0,1,41.29,84.49023a37.05056,37.05056,0,0,1-12.85547-2.499l.00391.001A29.99066,29.99066,0,0,1,14.67285,71.8125,27.80108,27.80108,0,0,1,12.249,67.91016l-.0039-.00782.00293.00684A29.90418,29.90418,0,0,1,9.0625,57.27441a1.00026,1.00026,0,0,1,1.98926-.21191,28.085,28.085,0,0,0,2.68066,9.32031.975.975,0,0,1,.31934.18067,36.14118,36.14118,0,0,0,10.626,6.42285A32.87887,32.87887,0,0,0,36.46484,75.209h.165c4.6377-.0332,6.6377-1.06543,7.47657-1.69531a3.45416,3.45416,0,0,0,.54785-.50488,4.49324,4.49324,0,0,0,1.15332-2.68848l.002-.11328a5.0354,5.0354,0,0,0-.69043-2.48144A2.75636,2.75636,0,0,0,42.64648,66.21a3.7817,3.7817,0,0,0-3.21972,2.082.99548.99548,0,0,1-.89258.52637,9.23966,9.23966,0,0,1-6.001-2.2207,6.86763,6.86763,0,0,1-2.48632-4.98438v.00195l-.001-.0039.001.002-.001-.05859a6.66706,6.66706,0,0,1,1.05273-3.48828A7.45837,7.45837,0,0,1,33.7373,55.5166l.002-.001a6.00746,6.00746,0,0,1,1.28808-.53028,9.67025,9.67025,0,0,1,2.61914-.35644l.12012-.001a16.46,16.46,0,0,1,7.1416,1.74512,10.81878,10.81878,0,0,1,5.36524,5.35937l.002.00488a20.66749,20.66749,0,0,1,.626,2.082,4.92791,4.92791,0,0,0,.88672,1.73828l.00293.00293A6.94167,6.94167,0,0,0,52.88477,66.751a3.7297,3.7297,0,0,0,1.81347.84961,3.58638,3.58638,0,0,0,.5293.03906,4.32863,4.32863,0,0,0,3.24316-1.5918l.00293-.0039a4.50914,4.50914,0,0,0,.96-2.91309,6.06463,6.06463,0,0,0-.1416-1.30859,6.52353,6.52353,0,0,0-2.18164-3.35547,32.40989,32.40989,0,0,0-4.24121-3.01563l.00293.00293c-1.37012-.86816-2.54883-1.46-3.65332-2.18262a9.83642,9.83642,0,0,1-2.99707-2.93359l-.001-.002a5.65844,5.65844,0,0,1-1.09961-3.09375,3.83925,3.83925,0,0,1,.06153-.67969l-.001.002.001-.00293v.001a4.62221,4.62221,0,0,1,1.46679-2.56543,6.32289,6.32289,0,0,1,.834-.64746A25.20376,25.20376,0,0,1,46.167,40.23145q-2.46532.22119-4.93066.44335a1.00009,1.00009,0,1,1-.17871-1.99218q2.25732-.20216,4.5166-.40528-.21534-.8247-.36035-1.56152a24.681,24.681,0,0,0-4.67188-.45215c-.2832,0-.56738.00488-.85058.01465a1.00011,1.00011,0,1,1-.06934-1.999c.30566-.01075.61328-.01563.91992-.01563a26.74371,26.74371,0,0,1,4.335.36133c-.05664-.4707-.09277-.87109-.11718-1.17773A.99968.99968,0,1,1,46.75293,33.29a24.63769,24.63769,0,0,0,2.99414,10.05762,20.49365,20.49365,0,0,0,3.80469,4.873l.002.001a23.69917,23.69917,0,0,0,16.126,6.19629,22.786,22.786,0,0,0,7.06738-1.10059,20.17757,20.17757,0,0,0,4.76367-2.2666,19.11887,19.11887,0,0,0,6.75293-7.73047A9.48888,9.48888,0,0,1,92.36328,44.794.99973.99973,0,1,0,93.46289,43.124a11.47123,11.47123,0,0,0-4.34668-1.71191c.24512-.61426.46484-1.2334.667-1.85449a15.01763,15.01763,0,0,1,4.31446,1.59277,1,1,0,1,0,.98242-1.74219,17.05722,17.05722,0,0,0-4.71973-1.79882c.58985-2.23047.97559-4.43653,1.32031-6.44043v.002a24.60009,24.60009,0,0,0,.25782-3.77442A27.17141,27.17141,0,0,0,90.23438,17.71a11.07369,11.07369,0,0,0-.72071-1.56348,2.63826,2.63826,0,0,0-.63379-.7832.85579.85579,0,0,0-.32715-.15723l-.165-.0166a1.75835,1.75835,0,0,0-.86133.28614,5.75228,5.75228,0,0,0-1.23926,1.0332,17.61068,17.61068,0,0,0-2.76367,4.22168,1.00126,1.00126,0,0,1-1.20313.51074c-1.708-.54883-3.49121-1.02148-5.30664-1.42676a.97973.97973,0,0,1-.68945-.15429,97.21591,97.21591,0,0,0-17.05664-1.89161.999.999,0,0,1-.958-.83886c-.19824-1.2168-.38867-2.39942-.62207-3.39942a7.31408,7.31408,0,0,0-.80957-2.24218c-.19629-.293-.34473-.38282-.44531-.41407l-.00293-.001-.13379-.01856a1.77448,1.77448,0,0,0-.87207.32617A9.726,9.726,0,0,0,53.44141,12.917a26.05242,26.05242,0,0,0-3.29883,4.542.99974.99974,0,0,1-1.73145-1,27.9828,27.9828,0,0,1,3.55957-4.89746l.001-.001a11.635,11.635,0,0,1,2.417-2.09082,3.70658,3.70658,0,0,1,1.90723-.61524,2.4481,2.4481,0,0,1,.72558.1084,2.87379,2.87379,0,0,1,1.52442,1.2207,7.095,7.095,0,0,1,.80859,1.833,30.60529,30.60529,0,0,1,.7959,3.7832A100.96737,100.96737,0,0,1,75,17.35645a31.32225,31.32225,0,0,0-6.42773-8.2793A33.74811,33.74811,0,0,0,54.06641,1.51172l-.00489-.001A41.863,41.863,0,0,0,42.71289,0c-1.27539,0-2.625.05566-4.03516.18457A44.04483,44.04483,0,0,0,19.15039,6.80762l-.00293.00293A42.06215,42.06215,0,0,0,4.08594,23.67578l.001-.001A41.35252,41.35252,0,0,0,0,41.8584,54.97262,54.97262,0,0,0,.46973,48.74707Zm74.4541-9.09277a.99994.99994,0,0,1,1.40722.1416,4.5693,4.5693,0,0,0,3.3418,1.64258l.00586.001.13379.002a4.59422,4.59422,0,0,0,3.30957-1.45118,1,1,0,1,1,1.46973,1.35645,6.57977,6.57977,0,0,1-4.7793,2.09473l-.19238-.00293a6.55387,6.55387,0,0,1-4.83692-2.377A.99982.99982,0,0,1,74.92383,39.6543Zm-9.65528,4.60937c.77637-.7373,1.55665-1.4873,2.33887-2.23047a1.00063,1.00063,0,0,1,1.47852.11231c.67871.874,1.37011,1.71191,2.10449,2.5039a1.00028,1.00028,0,0,1-1.46777,1.35938c-.53321-.57617-1.03418-1.17188-1.52442-1.77539q-.7749.73974-1.55371,1.48047a.99955.99955,0,1,1-1.376-1.4502ZM52.44727,37.2832a.99977.99977,0,0,1,1.38476.28614,4.14837,4.14837,0,0,0,3.38574,1.8291h.02246a4.16733,4.16733,0,0,0,3.38575-1.8711,1,1,0,1,1,1.68066,1.084A6.15125,6.15125,0,0,1,57.25,41.39844h-.03223A6.13134,6.13134,0,0,1,52.16113,38.668.99891.99891,0,0,1,52.44727,37.2832Z"/></g></g><text x="0" y="104.34766" fill="#000000" font-size="5px" font-weight="bold" font-family="'Helvetica Neue', Helvetica, Arial-Unicode, Arial, Sans-serif">Created by Denis Sazhin</text><text x="0" y="109.34766" fill="#000000" font-size="5px" font-weight="bold" font-family="'Helvetica Neue', Helvetica, Arial-Unicode, Arial, Sans-serif">from the Noun Project</text></svg>