<svg xmlns:xlink="http://www.w3.org/1999/xlink" xmlns="http://www.w3.org/2000/svg" stroke-width="0.501" stroke-linejoin="bevel" fill-rule="evenodd" version="1.1" overflow="visible" viewBox="0 0 75 93.75" x="0px" y="0px"><g fill="none" stroke="black" font-family="Times New Roman" font-size="16" transform="scale(1 -1)"><g transform="translate(0 -75)"><g><path d="M 47.882,6.044 L 47.849,6.05 L 47.794,6.061 C 47.765,6.066 47.737,6.075 47.709,6.086 C 45.169,7.102 22.988,19.626 18.106,22.428 L 17.584,22.729 L 16.544,22.274 C 13.536,21.182 10.595,21.657 8.015,22.83 C 5.174,24.119 3.07,26.955 1.937,29.764 C 0.246,33.951 -0.218,39.045 1.268,43.358 C 2.447,46.771 4.021,49.407 7.693,51.757 L 9.235,52.653 L 9.405,53.087 C 10.093,54.885 12.008,59.685 16.681,62.964 C 21.345,66.24 26.057,67.474 31.07,67.377 C 35.347,67.295 39.449,66.028 43.202,63.14 C 46.01,60.98 47.883,59.316 50.46,55.309 C 51.026,54.425 52.684,52.146 53.4,51.443 C 53.585,51.261 53.957,51.011 54.351,50.711 L 54.907,50.184 L 55.261,50.802 C 56.479,52.839 59.116,56.619 60.705,54.184 C 61.978,52.231 63.536,47.824 64.391,45.129 L 64.58,44.513 L 64.551,44.606 C 64.58,44.565 64.604,44.517 64.619,44.467 C 64.633,44.419 64.647,44.37 64.664,44.32 L 64.991,44.208 C 67.115,43.383 73.414,40.531 74.021,40.076 L 74.067,40.035 L 74.105,39.999 C 74.151,39.954 74.188,39.901 74.213,39.841 C 74.808,38.454 74.631,34.208 74.468,30.336 C 74.277,25.813 74.15,22.639 74.532,22.021 C 74.628,21.863 74.627,21.664 74.528,21.507 C 73.891,20.5 70.442,17.819 69.016,16.935 C 66.863,15.601 50.078,5.756 47.882,6.044 Z M 68.505,17.761 C 69.765,18.54 72.417,20.611 73.399,21.651 L 73.573,21.863 L 73.518,22.016 C 73.16,23.503 73.357,27.042 73.499,30.377 C 73.643,33.803 73.76,37.128 73.503,38.751 C 73.346,38.692 73.028,38.545 72.586,38.321 C 72.122,38.086 71.558,37.786 70.992,37.473 C 70.428,37.16 69.867,36.835 69.403,36.55 C 69.191,36.419 69.007,36.302 68.857,36.199 C 70.024,34.881 70.5,33.185 70.318,31.738 C 70.096,29.981 68.861,28.538 66.747,28.71 C 64.836,28.865 63.176,31.056 62.838,32.363 L 62.83,32.433 L 62.343,32.133 C 61.455,31.594 60.404,30.985 59.794,30.535 C 59.849,30.459 59.901,30.384 59.954,30.304 C 61.936,27.253 61.028,23.856 58.662,23.091 C 56.477,22.386 54.977,23.143 53.944,25.235 C 53.752,25.625 53.497,25.967 53.234,26.252 C 53.161,26.201 53.073,26.172 52.978,26.17 C 52.779,26.164 52.455,26.055 52.007,25.826 C 51.577,25.607 51.101,25.314 50.614,25.014 C 50.137,24.719 49.645,24.415 49.212,24.191 C 48.945,24.054 48.638,23.912 48.339,23.849 C 48.302,23.549 48.269,23.189 48.241,22.775 C 48.2,22.169 48.172,21.461 48.153,20.681 C 48.116,19.124 48.121,17.294 48.163,15.467 C 48.202,13.639 48.278,11.821 48.379,10.281 C 48.427,9.512 48.485,8.815 48.546,8.225 C 48.591,7.794 48.636,7.428 48.685,7.13 C 52.185,8.238 65.857,16.119 68.505,17.761 Z M 47.717,7.149 L 47.698,7.157 C 47.657,7.442 47.618,7.767 47.581,8.124 C 47.518,8.73 47.46,9.442 47.409,10.219 C 47.308,11.774 47.232,13.608 47.193,15.445 C 47.151,17.283 47.146,19.128 47.184,20.706 C 47.202,21.493 47.231,22.217 47.272,22.841 C 47.3,23.256 47.335,23.632 47.375,23.955 C 47.188,24.019 46.975,24.101 46.751,24.189 C 46.243,24.392 45.596,24.674 44.859,25.007 C 43.386,25.677 41.539,26.566 39.707,27.479 C 37.878,28.395 36.058,29.337 34.639,30.112 C 33.93,30.499 33.316,30.847 32.85,31.131 C 32.562,31.303 32.296,31.474 32.101,31.623 C 31.606,31.205 31.141,30.989 30.673,30.979 C 30.003,30.964 29.51,31.38 29.142,31.727 C 28.326,32.5 27.829,33.17 26.708,32.778 C 23.967,31.821 23.235,30.015 22.477,28.045 C 21.792,26.265 21.082,24.329 18.748,23.179 C 23.578,20.409 42.785,9.567 47.326,7.33 L 47.717,7.149 Z M 17.395,23.703 C 17.458,23.734 17.525,23.752 17.595,23.747 C 20.152,24.659 20.811,26.417 21.571,28.392 C 22.34,30.395 23.207,32.583 26.389,33.694 C 28.18,34.32 29.159,33.048 29.808,32.432 C 30.177,32.085 30.412,31.944 30.651,31.949 C 30.895,31.954 31.319,32.12 32.015,32.901 C 33.986,35.108 30.104,38.817 26.73,38.861 C 23.393,38.905 21.922,36.983 20.679,34.598 C 19.472,32.284 18.441,29.319 15.949,28.099 C 12.484,26.402 9.862,27.729 8.228,30.127 C 6.631,32.472 5.939,35.864 6.133,38.536 C 6.293,40.727 7.089,43.438 8.558,44.698 C 8.598,44.732 8.645,44.76 8.667,44.768 C 8.721,44.79 8.751,44.799 8.866,44.814 C 8.883,44.824 8.99,44.811 9.06,44.776 C 9.103,44.756 9.121,44.746 9.138,44.735 C 12.631,42.462 18.524,40.307 21.668,37.95 C 21.697,37.927 21.723,37.902 21.747,37.875 C 22.903,39.061 24.445,39.861 26.743,39.831 C 28.744,39.805 30.863,38.698 32.181,37.258 C 33.469,35.851 34.148,33.906 32.794,32.318 C 32.924,32.229 33.107,32.109 33.353,31.959 C 33.801,31.687 34.401,31.348 35.104,30.964 C 36.51,30.196 38.317,29.26 40.142,28.347 C 41.966,27.438 43.802,26.554 45.26,25.891 C 45.991,25.559 46.622,25.286 47.111,25.091 C 47.638,24.881 47.921,24.797 47.995,24.789 L 48.036,24.787 C 48.107,24.78 48.321,24.824 48.768,25.055 C 49.161,25.256 49.615,25.538 50.105,25.84 C 50.757,26.243 51.607,26.785 52.343,27.022 C 52.213,27.111 52.081,27.182 51.94,27.239 C 51.692,27.338 51.569,27.622 51.67,27.87 C 51.769,28.117 52.051,28.239 52.301,28.14 C 52.532,28.048 52.75,27.928 52.944,27.786 C 53.424,27.463 54.296,26.717 54.814,25.664 C 55.655,23.962 56.688,23.474 58.364,24.014 C 59.872,24.502 60.933,27.017 59.141,29.775 C 58.024,31.492 55.99,31.685 53.847,31.074 C 51.71,30.463 49.716,29.11 48.965,28.117 C 48.479,27.475 48.366,27.296 47.885,26.72 C 47.714,26.514 47.407,26.487 47.203,26.659 C 46.997,26.83 46.969,27.136 47.14,27.342 C 47.6,27.894 47.687,28.038 48.192,28.702 C 49.102,29.904 51.297,31.356 53.582,32.008 C 55.484,32.55 57.625,32.578 59.137,31.254 C 59.144,31.26 59.152,31.266 59.16,31.272 C 60.224,32.076 62.359,33.2 63.05,33.755 C 63.376,34.017 63.86,33.769 63.839,33.351 L 63.797,32.545 L 63.842,32.399 C 64.23,31.33 65.556,29.78 66.824,29.677 C 68.329,29.556 69.184,30.504 69.356,31.859 C 69.53,33.246 68.949,34.988 67.514,36.15 C 65.263,37.971 60.359,36.412 59.932,33.631 C 59.891,33.368 59.644,33.186 59.378,33.226 C 59.114,33.267 58.932,33.515 58.972,33.78 C 59.41,36.625 63.116,38.31 66.02,37.81 C 66.016,38.694 65.627,39.762 65.113,40.909 C 64.684,41.865 64.195,42.815 63.878,43.637 C 63.835,43.689 63.802,43.748 63.782,43.815 C 63.049,46.267 61.258,51.56 59.892,53.653 C 58.969,55.068 56.472,51.037 55.461,49.174 C 55.422,49.103 55.37,49.048 55.353,49.061 C 55.317,49.005 55.258,48.97 55.184,48.944 C 55.133,48.927 55.069,48.918 55.005,48.932 C 54.998,48.922 54.987,48.922 54.976,48.924 C 53.106,49.151 51.321,48.879 49.501,48.462 C 47.828,48.08 45.407,46.808 44.637,46.589 C 44.407,46.523 44.164,46.635 44.063,46.853 C 43.248,48.624 40.549,51.874 39.293,51.148 C 39.003,50.98 38.629,50.302 38.281,49.026 C 37.95,47.819 37.687,46.261 37.481,44.597 C 37.072,41.276 36.906,37.607 36.906,35.68 C 36.906,35.413 36.687,35.196 36.419,35.196 C 36.152,35.196 35.934,35.413 35.934,35.68 C 35.934,37.645 36.103,41.352 36.517,44.716 C 36.885,47.686 37.505,51.233 38.808,51.988 C 40.846,53.167 43.519,49.739 44.591,47.92 L 44.738,47.661 L 45.128,47.827 C 46.18,48.287 47.98,49.109 49.285,49.409 C 50.716,49.735 52.179,49.989 53.707,49.976 C 53.425,50.162 53.111,50.366 52.721,50.752 C 51.922,51.534 50.215,53.893 49.643,54.785 C 47.142,58.674 45.353,60.26 42.611,62.372 C 39.033,65.124 35.135,66.328 31.051,66.407 C 26.232,66.499 21.724,65.321 17.238,62.17 C 12.842,59.083 11.028,54.595 10.321,52.763 C 10.394,52.644 10.415,52.495 10.369,52.353 C 10.169,51.766 10.039,51.161 9.944,50.535 C 9.849,49.908 9.79,49.268 9.734,48.611 C 9.711,48.343 9.473,48.145 9.207,48.169 C 8.941,48.193 8.744,48.429 8.767,48.695 C 8.846,49.611 8.932,50.557 9.131,51.493 C 4.999,49.131 3.395,46.546 2.187,43.042 C 0.791,38.992 1.215,34.143 2.837,30.126 C 3.914,27.457 5.88,24.866 8.417,23.714 C 11.171,22.46 14.269,22.096 17.395,23.703 Z M 40.679,28.485 C 40.522,28.702 40.571,29.007 40.787,29.163 C 41.382,29.593 42.201,30.099 43.048,30.502 C 43.879,30.896 44.799,31.222 45.58,31.23 C 45.847,31.233 46.067,31.018 46.069,30.749 C 46.073,30.482 45.857,30.261 45.59,30.259 C 45.029,30.253 44.267,30.008 43.463,29.625 C 42.675,29.252 41.909,28.776 41.358,28.377 C 41.14,28.22 40.837,28.269 40.679,28.485 Z M 15.523,28.971 C 18.239,30.302 18.983,34.386 21.119,37.149 C 21.108,37.156 21.097,37.164 21.086,37.173 C 18.127,39.391 12.553,41.453 8.934,43.715 C 7.914,42.608 7.244,40.428 7.102,38.464 C 6.92,35.968 7.579,32.805 9.03,30.673 C 10.446,28.596 12.571,27.525 15.523,28.971 Z M 38.924,30.767 C 38.781,30.993 38.848,31.293 39.074,31.437 C 39.774,31.881 40.744,32.248 41.708,32.516 C 42.678,32.785 43.684,32.965 44.473,33.016 C 44.741,33.032 44.972,32.83 44.989,32.563 C 45.007,32.296 44.803,32.064 44.536,32.046 C 43.826,32.002 42.887,31.836 41.968,31.581 C 41.043,31.324 40.177,30.987 39.593,30.618 C 39.368,30.473 39.068,30.541 38.924,30.767 Z M 45.788,36.176 C 45.788,37.083 46.413,37.82 47.185,37.82 C 47.955,37.82 48.58,37.083 48.58,36.176 C 48.58,35.267 47.955,34.531 47.185,34.531 C 46.413,34.531 45.788,35.267 45.788,36.176 Z M 70.523,38.322 C 71.096,38.639 71.67,38.945 72.149,39.186 C 72.45,39.34 72.728,39.475 72.947,39.571 L 72.953,39.568 L 72.903,39.596 C 71.371,40.374 67.141,42.284 65.163,43.1 C 65.422,42.533 65.722,41.921 65.998,41.306 C 66.09,41.099 66.184,40.888 66.272,40.673 C 66.321,40.69 66.38,40.715 66.45,40.746 C 66.52,40.777 66.597,40.814 66.679,40.854 C 66.761,40.895 66.845,40.938 66.934,40.981 C 67.107,41.068 67.297,41.162 67.473,41.236 C 67.638,41.307 67.84,41.382 68.031,41.402 C 68.298,41.429 68.536,41.234 68.564,40.968 C 68.592,40.702 68.397,40.464 68.13,40.436 C 68.119,40.435 68.09,40.43 68.036,40.413 C 67.986,40.397 67.924,40.373 67.852,40.344 C 67.708,40.283 67.548,40.203 67.369,40.114 C 67.282,40.071 67.193,40.026 67.107,39.983 C 67.019,39.941 66.932,39.899 66.846,39.861 C 66.77,39.825 66.691,39.793 66.614,39.765 C 66.698,39.514 66.772,39.263 66.832,39.013 C 66.846,39.016 66.863,39.019 66.885,39.025 C 66.947,39.04 67.024,39.064 67.116,39.098 C 67.297,39.165 67.506,39.258 67.743,39.363 C 67.962,39.461 68.206,39.57 68.426,39.653 C 68.537,39.694 68.65,39.732 68.76,39.759 C 68.866,39.786 68.989,39.808 69.128,39.806 C 69.397,39.797 69.607,39.573 69.599,39.306 C 69.591,39.038 69.368,38.828 69.099,38.836 C 69.095,38.836 69.064,38.835 68.996,38.818 C 68.934,38.802 68.857,38.777 68.766,38.743 C 68.583,38.675 68.376,38.583 68.138,38.478 C 67.918,38.379 67.673,38.27 67.452,38.188 C 67.341,38.147 67.227,38.109 67.117,38.082 C 67.073,38.072 67.03,38.062 66.983,38.054 C 66.993,37.912 66.995,37.773 66.989,37.634 C 66.987,37.605 66.983,37.579 66.978,37.552 C 67.396,37.392 67.784,37.178 68.124,36.903 C 68.131,36.897 68.137,36.892 68.144,36.886 C 68.734,37.306 69.74,37.888 70.523,38.322 Z M 57.972,39.316 C 57.972,40.232 58.604,40.976 59.381,40.976 C 60.158,40.976 60.79,40.232 60.79,39.316 C 60.79,38.4 60.158,37.656 59.381,37.656 C 58.604,37.656 57.972,38.4 57.972,39.316 Z" stroke="none" fill="#000000" stroke-width="0.5" fill-rule="evenodd" marker-start="none" marker-end="none" stroke-miterlimit="79.8403193612775"/></g></g></g><text x="0" y="90" fill="#000000" font-size="5px" font-weight="bold" font-family="'Helvetica Neue', Helvetica, Arial-Unicode, Arial, Sans-serif">Created by Denis Sazhin</text><text x="0" y="95" fill="#000000" font-size="5px" font-weight="bold" font-family="'Helvetica Neue', Helvetica, Arial-Unicode, Arial, Sans-serif">from the Noun Project</text></svg>